<?xml version="1.0" encoding="utf-8"?>
<!-- Generator: Adobe Illustrator 21.0.2, SVG Export Plug-In . SVG Version: 6.00 Build 0)  -->
<svg version="1.1" xmlns="http://www.w3.org/2000/svg" xmlns:xlink="http://www.w3.org/1999/xlink" x="0px" y="0px"
	 viewBox="0 0 436.7 163.7" style="enable-background:new 0 0 436.7 163.7;" xml:space="preserve">
<style type="text/css">
	.st0{display:none;}
	.st1{display:inline;opacity:0.4;}
	.st2{display:inline;fill:none;stroke:#000000;stroke-miterlimit:10;}
	.st3{display:inline;fill:none;stroke:#FFFFFF;stroke-width:11;stroke-miterlimit:10;}
	.st4{display:inline;opacity:0.5;fill:#854402;}
	.st5{display:inline;}
	.st6{fill:#562804;}
	.st7{fill:#A44600;}
	.st8{fill:#854402;}
	.st9{fill:#512A09;}
	.st10{fill:#6A4D25;}
	.st11{fill:#845E31;}
	.st12{fill:#B8A270;}
	.st13{fill:#BE4D01;}
	.st14{fill:#DBC7AE;}
</style>
<g id="Calque_1">
</g>
<g id="work" class="st0">
	<path class="st1" d="M346.3,145.4h-273C31.2,145.4-3,111.2-3,69v0C-3,26.9,31.2-7.3,73.3-7.3h273c42.2,0,76.3,34.2,76.3,76.3v0
		C422.7,111.2,388.5,145.4,346.3,145.4z"/>
	<polygon class="st2" points="209.8,215.4 33.5,69 209.8,-87.3 386.2,69 	"/>
	<polygon class="st2" points="209.8,163.9 95.5,69 209.8,-32.3 324.2,69 	"/>
	<path class="st3" d="M346.3,145.4h-273C31.2,145.4-3,111.2-3,69v0C-3,26.9,31.2-7.3,73.3-7.3h273c42.2,0,76.3,34.2,76.3,76.3v0
		C422.7,111.2,388.5,145.4,346.3,145.4z"/>
	<path class="st4" d="M251.4,65.3v0.6C251.4,65.7,251.4,65.5,251.4,65.3C251.3,65.3,251.4,65.3,251.4,65.3z"/>
	<path class="st4" d="M273.1,100.9c0,1.1,0,2.2-0.1,3.3v-6.6C273.1,98.6,273.1,99.7,273.1,100.9z"/>
	<circle class="st4" cx="144.1" cy="65.9" r="16.5"/>
	<circle class="st4" cx="144.1" cy="65.9" r="16.5"/>
	<path class="st4" d="M303.1,13c0,7.1-5.8,12.9-12.9,12.9c-7.1,0-12.9-5.8-12.9-12.9c0-7.1,5.8-12.9,12.9-12.9
		C297.3,0.1,303.1,5.8,303.1,13z"/>
	<path class="st4" d="M251.4,30.3c-5.5-2.8-11.7-4.4-18.3-4.4c-21.7,0-39.4,17.3-40,38.9c0,0.4,0,0.7,0,1.1c0,0.7,0,1.4,0,2.1
		c0.2,3,0.6,5.9,1.4,8.7c0.6,2.4,1.5,4.6,2.6,6.8c1.1,2.2,2.4,4.3,3.8,6.3c3.7,5,8.5,9.1,14.1,11.9c5.4,2.7,11.5,4.3,18,4.3
		c6.5,0,12.6-1.5,18-4.3c0.1,0,0.2-0.1,0.3-0.1v3.2c0,1.4-0.2,2.8-0.5,4.1c0,0,0,0,0,0c-1.9,8.1-9.1,14.1-17.8,14.1
		c-0.9,0-4.8,0-5.9,0c-9.3,0-17.4-4.7-22.3-11.8l-7.7,7.4l-4.4,4.2c7.1,11,19.5,18.2,33.5,18.2c1.1,0,5.6,0,6.8,0
		c6.9,0,13.3-1.7,18.9-4.8c11.6-6.3,19.8-18.1,20.9-32V62.6C271.8,48.5,263.3,36.4,251.4,30.3z M251.4,65.9c0,1.2-0.1,2.4-0.3,3.5
		c-0.6,3.1-2,6-4,8.3c-3.3,3.9-8.3,6.4-13.9,6.4c-8.1,0-15-5.3-17.3-12.6c-0.6-1.8-0.9-3.7-0.9-5.7c0-0.2,0-0.4,0-0.6
		c0-1,0.1-1.9,0.3-2.8c1.6-8.5,9-14.8,17.9-14.8c9.9,0,17.9,7.8,18.2,17.6c0,0,0,0,0,0V65.9z"/>
	<path class="st4" d="M251.4,65.3v0.6C251.4,65.7,251.4,65.5,251.4,65.3C251.3,65.3,251.4,65.3,251.4,65.3z"/>
	<circle class="st4" cx="144.1" cy="65.9" r="16.5"/>
	<path class="st4" d="M347.3,25.9c-20.4,0-37.2,15.3-39.7,35c-0.2,1.6-0.3,3.3-0.3,5v70.3h21.6v-34.7c5.5,2.9,11.8,4.5,18.4,4.5
		c22.1,0,40-17.9,40-40S369.4,25.9,347.3,25.9z M347.3,84.1c-10.1,0-18.3-8.2-18.3-18.3s8.2-18.3,18.3-18.3
		c10.1,0,18.3,8.2,18.3,18.3S357.4,84.1,347.3,84.1z"/>
	<path class="st4" d="M92,81.7l8.9,8.9c-3.3,4.3-7.5,7.8-12.3,10.4c-5.7,3.1-12.2,4.8-19.1,4.8c-22.1,0-40-17.9-40-40s17.9-40,40-40
		c6.9,0,13.4,1.8,19.1,4.8c5,2.7,9.3,6.5,12.8,11l-9.1,9l-6.6,6.6c-3.1-5.8-9.1-9.7-16.1-9.7c-10.1,0-18.3,8.2-18.3,18.3
		s8.2,18.3,18.3,18.3c6.7,0,12.6-3.6,15.8-9L92,81.7z"/>
	<circle class="st4" cx="144.1" cy="65.9" r="16.5"/>
	<rect x="279.4" y="27.6" class="st4" width="21.6" height="75.3"/>
	<path class="st4" d="M183.9,69.5c-0.3,3.4-1,6.6-2.1,9.7l0,0c-4,11.4-13.1,20.4-24.6,24.4l0,0c-4.1,1.4-8.5,2.2-13.1,2.2
		c-17,0-31.5-10.6-37.3-25.5c-1.3-3.4-2.2-7-2.5-10.8c1.4,1.5,2.9,2.8,4.5,4.1c9.6,8,21.9,12.7,35.3,12.7
		C159.7,86.4,173.8,79.9,183.9,69.5z"/>
	<circle class="st4" cx="144.1" cy="65.9" r="16.5"/>
	<path class="st4" d="M183.9,62.2c-10.1-10.4-24.2-16.9-39.8-16.9c-13.4,0-25.7,4.8-35.3,12.7c-1.6,1.3-3.1,2.7-4.5,4.1
		c0.3-3.8,1.2-7.4,2.5-10.8c5.8-14.9,20.3-25.5,37.3-25.5c4,0,8,0.6,11.6,1.7c12.7,3.8,22.6,13.8,26.6,26.4l0,0
		C183.1,56.6,183.7,59.4,183.9,62.2z"/>
	<path class="st4" d="M183.9,62.2c-10.1-10.4-24.2-16.9-39.8-16.9c-13.4,0-25.7,4.8-35.3,12.7c-1.6,1.3-3.1,2.7-4.5,4.1
		c-1.1,1.2-2.2,2.4-3.2,3.7c1,1.3,2.1,2.5,3.2,3.7c1.4,1.5,2.9,2.8,4.5,4.1c9.6,8,21.9,12.7,35.3,12.7c15.6,0,29.8-6.5,39.8-16.9
		c1.1-1.2,2.2-2.4,3.2-3.6C186.1,64.6,185,63.4,183.9,62.2z M144.1,82.3c-9.1,0-16.5-7.4-16.5-16.5s7.4-16.5,16.5-16.5
		c9.1,0,16.5,7.4,16.5,16.5S153.2,82.3,144.1,82.3z"/>
	<g class="st5">
		<g>
			<g>
				<g>
					<path class="st6" d="M349.9,129.1c-0.9,0.8-1.6,1.5-2.2,2.2h6.8l1.4-5l1-0.6h5.7l1,1l-2.8,10.2l-1,0.6h-21.1l-1-1l0.5-2.2
						c0.4-2,1.5-4.1,3-6.3c1.5-2.1,4.3-4.7,8.3-7.6c4.7-3.5,6.3-5.1,6.8-5.9c0.7-1,1.1-1.9,1.1-2.6c0-0.3-0.1-0.6-0.4-0.8
						c-0.3-0.2-0.7-0.4-1.2-0.4c-2.4,0-4.1,2.2-5.3,6.4l-1,0.7h-6.9l-1-1c2.2-8.2,7.4-12.3,15.2-12.3c3.1,0,5.6,0.7,7.5,2.1
						c1.9,1.4,2.9,3.4,2.9,5.7c0,2.1-0.7,3.9-2,5.5c-1.3,1.5-3.6,3.3-7.2,5.5C354,125.9,351.3,127.8,349.9,129.1z"/>
				</g>
				<g>
					<path class="st6" d="M393.9,107.7c-1.9-2.1-4.5-3.1-7.7-3.1c-3.3,0-6.3,1.2-8.9,3.4c-2.5,2.2-4.5,5.2-5.9,8.8
						c-1.4,3.6-2.1,6.9-2.1,9.6c0,3.5,0.9,6.4,2.7,8.5c1.9,2.2,4.5,3.3,7.7,3.3c5.1,0,9.3-2.5,12.5-7.4c3-4.8,4.6-9.8,4.6-14.9
						C396.7,112.4,395.8,109.7,393.9,107.7z M380.2,131.8c-0.6,0-1.8,0-1.8-2.5c0-0.7,0.3-2.7,1.7-8c1.1-4.2,2.2-7.1,3.2-8.6
						c0.6-0.9,1.6-1.9,2.6-1.9c0.5,0,0.9,0.2,1.3,0.5c0.4,0.4,0.5,1,0.5,1.8c0,1.4-0.6,4.3-1.7,8.4c-1.1,4.2-2.2,7-3.2,8.4
						C382.1,130.8,381.2,131.8,380.2,131.8z"/>
				</g>
				<g>
					<path class="st6" d="M423.3,107.7c-1.9-2.1-4.5-3.1-7.7-3.1c-3.3,0-6.3,1.2-9,3.4c-2.5,2.2-4.5,5.2-5.9,8.8
						c-1.4,3.6-2.1,6.9-2.1,9.6c0,3.5,0.9,6.4,2.7,8.5c1.9,2.2,4.5,3.3,7.7,3.3c5.1,0,9.3-2.5,12.5-7.4c3-4.8,4.6-9.8,4.6-14.9
						C426.1,112.4,425.2,109.7,423.3,107.7z M412.1,130c-0.6,0.8-1.5,1.8-2.5,1.8c-0.6,0-1.8,0-1.8-2.5c0-0.7,0.3-2.7,1.7-8
						c1.1-4.2,2.2-7.1,3.2-8.6c0.6-0.9,1.6-1.9,2.6-1.9c0.5,0,0.9,0.2,1.3,0.5c0.4,0.4,0.5,1,0.5,1.8c0,1.4-0.6,4.3-1.7,8.4
						C414.2,125.8,413.1,128.6,412.1,130z"/>
				</g>
				<g>
					<path class="st6" d="M452.7,107.7c-1.9-2.1-4.5-3.1-7.7-3.1c-3.3,0-6.4,1.2-8.9,3.4c-2.5,2.2-4.5,5.2-5.9,8.8
						c-1.4,3.6-2.1,6.9-2.1,9.6c0,3.5,0.9,6.4,2.7,8.5c1.9,2.2,4.5,3.3,7.7,3.3c5.1,0,9.3-2.5,12.5-7.4c3-4.8,4.6-9.8,4.6-14.9
						C455.5,112.4,454.5,109.7,452.7,107.7z M441.5,130c-0.6,0.8-1.5,1.8-2.5,1.8c-0.6,0-1.8,0-1.8-2.5c0-0.7,0.3-2.7,1.7-8
						c1.1-4.2,2.2-7.1,3.2-8.6c0.6-0.9,1.5-1.9,2.6-1.9c0.5,0,0.9,0.2,1.3,0.5c0.4,0.4,0.5,1,0.5,1.8c0,1.4-0.6,4.3-1.7,8.4
						C443.6,125.8,442.5,128.6,441.5,130z"/>
				</g>
			</g>
		</g>
		<g>
			<g>
				<g>
					<path class="st7" d="M347.9,127.4c-0.9,0.8-1.6,1.5-2.2,2.2h6.8l1.4-5l1-0.6h5.7l1,1l-2.8,10.2l-1,0.6h-21.1l-1-1l0.5-2.2
						c0.4-2,1.5-4.1,3-6.3c1.5-2.1,4.3-4.7,8.3-7.6c4.7-3.5,6.3-5.1,6.8-5.9c0.7-1,1.1-1.9,1.1-2.6c0-0.3-0.1-0.6-0.4-0.8
						c-0.3-0.2-0.7-0.4-1.2-0.4c-2.4,0-4.1,2.2-5.3,6.4l-1,0.7h-6.9l-1-1c2.2-8.2,7.4-12.3,15.2-12.3c3.1,0,5.6,0.7,7.5,2.1
						c1.9,1.4,2.9,3.4,2.9,5.7c0,2.1-0.7,3.9-2,5.5c-1.3,1.5-3.6,3.3-7.2,5.5C352,124.2,349.3,126.1,347.9,127.4z"/>
				</g>
				<g>
					<path class="st7" d="M391.9,106c-1.9-2.1-4.5-3.1-7.7-3.1c-3.3,0-6.3,1.2-8.9,3.4c-2.5,2.2-4.5,5.2-5.9,8.8
						c-1.4,3.6-2.1,6.9-2.1,9.6c0,3.5,0.9,6.4,2.7,8.5c1.9,2.2,4.5,3.3,7.7,3.3c5.1,0,9.3-2.5,12.5-7.4c3-4.8,4.6-9.8,4.6-14.9
						C394.7,110.8,393.8,108,391.9,106z M378.2,130.1c-0.6,0-1.8,0-1.8-2.5c0-0.7,0.3-2.7,1.7-8c1.1-4.2,2.2-7.1,3.2-8.6
						c0.6-0.9,1.6-1.9,2.6-1.9c0.5,0,0.9,0.2,1.3,0.5c0.4,0.4,0.5,1,0.5,1.8c0,1.4-0.6,4.3-1.7,8.4c-1.1,4.2-2.2,7-3.2,8.4
						C380.1,129.1,379.2,130.1,378.2,130.1z"/>
				</g>
				<g>
					<path class="st7" d="M421.3,106c-1.9-2.1-4.5-3.1-7.7-3.1c-3.3,0-6.3,1.2-9,3.4c-2.5,2.2-4.5,5.2-5.9,8.8
						c-1.4,3.6-2.1,6.9-2.1,9.6c0,3.5,0.9,6.4,2.7,8.5c1.9,2.2,4.5,3.3,7.7,3.3c5.1,0,9.3-2.5,12.5-7.4c3-4.8,4.6-9.8,4.6-14.9
						C424.1,110.8,423.2,108,421.3,106z M410.1,128.3c-0.6,0.8-1.5,1.8-2.5,1.8c-0.6,0-1.8,0-1.8-2.5c0-0.7,0.3-2.7,1.7-8
						c1.1-4.2,2.2-7.1,3.2-8.6c0.6-0.9,1.6-1.9,2.6-1.9c0.5,0,0.9,0.2,1.3,0.5c0.4,0.4,0.5,1,0.5,1.8c0,1.4-0.6,4.3-1.7,8.4
						C412.2,124.1,411.1,126.9,410.1,128.3z"/>
				</g>
				<g>
					<path class="st7" d="M450.7,106c-1.9-2.1-4.5-3.1-7.7-3.1c-3.3,0-6.4,1.2-8.9,3.4c-2.5,2.2-4.5,5.2-5.9,8.8
						c-1.4,3.6-2.1,6.9-2.1,9.6c0,3.5,0.9,6.4,2.7,8.5c1.9,2.2,4.5,3.3,7.7,3.3c5.1,0,9.3-2.5,12.5-7.4c3-4.8,4.6-9.8,4.6-14.9
						C453.5,110.8,452.5,108,450.7,106z M439.5,128.3c-0.6,0.8-1.5,1.8-2.5,1.8c-0.6,0-1.8,0-1.8-2.5c0-0.7,0.3-2.7,1.7-8
						c1.1-4.2,2.2-7.1,3.2-8.6c0.6-0.9,1.5-1.9,2.6-1.9c0.5,0,0.9,0.2,1.3,0.5c0.4,0.4,0.5,1,0.5,1.8c0,1.4-0.6,4.3-1.7,8.4
						C441.6,124.1,440.5,126.9,439.5,128.3z"/>
				</g>
			</g>
		</g>
	</g>
</g>
<g id="Back">
</g>
<g id="Calque_2">
	<g>
		<path class="st8" d="M281.6,113.7c0,1.1,0,2.2-0.1,3.3v-6.6C281.6,111.4,281.6,112.5,281.6,113.7z"/>
		<path class="st9" d="M354.8,158.2h-273c-42.2,0-76.3-34.2-76.3-76.3v0c0-42.2,34.2-76.3,76.3-76.3h273c42.2,0,76.3,34.2,76.3,76.3
			v0C431.2,124,397,158.2,354.8,158.2z"/>
		<polygon class="st10" points="394.7,81.8 302.7,158.2 134,158.2 42,81.8 128.1,5.5 308.6,5.5 		"/>
		<polygon class="st11" points="322,81.8 230,158.2 206.7,158.2 114.7,81.8 200.8,5.5 235.9,5.5 		"/>
		<path class="st12" d="M354.8,163.7h-273C36.7,163.7,0,127,0,81.8S36.7,0,81.8,0h273c45.1,0,81.8,36.7,81.8,81.8
			S400,163.7,354.8,163.7z M81.8,11C42.8,11,11,42.8,11,81.8s31.8,70.8,70.8,70.8h273c39.1,0,70.8-31.8,70.8-70.8S393.9,11,354.8,11
			H81.8z"/>
		<path class="st8" d="M259.9,78.1v0.6C259.9,78.5,259.9,78.3,259.9,78.1C259.9,78.1,259.9,78.1,259.9,78.1z"/>
		<path class="st8" d="M259.9,78.1v0.6C259.9,78.5,259.9,78.3,259.9,78.1C259.9,78.1,259.9,78.1,259.9,78.1z"/>
		<g>
			<circle class="st13" cx="154.1" cy="77.3" r="16.2"/>
			<path class="st13" d="M310.9,25.2c0,7-5.7,12.7-12.7,12.7c-7,0-12.7-5.7-12.7-12.7c0-7,5.7-12.7,12.7-12.7
				C305.2,12.4,310.9,18.1,310.9,25.2z"/>
			<path class="st12" d="M259.9,42.2c-5.4-2.8-11.5-4.3-18-4.3c-21.4,0-38.8,17.1-39.4,38.3c0,0.4,0,0.7,0,1.1c0,0.7,0,1.4,0,2
				c0.1,2.9,0.6,5.8,1.4,8.5c0.6,2.3,1.5,4.5,2.5,6.7c1.1,2.2,2.3,4.3,3.8,6.2c3.6,4.9,8.4,9,13.9,11.7c5.3,2.7,11.4,4.2,17.7,4.2
				c6.4,0,12.4-1.5,17.7-4.2c0.1,0,0.2-0.1,0.2-0.1v3.1c0,1.4-0.2,2.8-0.5,4.1c0,0,0,0,0,0c-1.8,8-9,13.9-17.5,13.9
				c-0.9,0-4.8,0-5.8,0c-9.1,0-17.2-4.6-22-11.6l-7.6,7.3l-4.3,4.1c7,10.8,19.2,18,33.1,18c1.1,0,5.5,0,6.7,0
				c6.8,0,13.1-1.7,18.6-4.7c11.5-6.2,19.5-17.9,20.6-31.5V74C280,60.1,271.7,48.3,259.9,42.2z M259.9,77.3c0,1.2-0.1,2.3-0.3,3.5
				c-0.6,3.1-2,5.9-4,8.2c-3.3,3.9-8.2,6.3-13.7,6.3c-8,0-14.8-5.2-17.1-12.4c-0.6-1.8-0.9-3.6-0.9-5.6c0-0.2,0-0.4,0-0.6
				c0-0.9,0.1-1.9,0.3-2.8c1.6-8.3,8.9-14.6,17.7-14.6c9.7,0,17.7,7.7,18,17.4c0,0,0,0,0,0V77.3z"/>
			<path class="st12" d="M354.4,37.9c-20.1,0-36.7,15.1-39.1,34.5c-0.2,1.6-0.3,3.3-0.3,4.9v69.2h21.3v-34.2
				c5.4,2.8,11.6,4.4,18.1,4.4c21.8,0,39.4-17.7,39.4-39.4S376.2,37.9,354.4,37.9z M354.4,95.3c-9.9,0-18-8.1-18-18s8.1-18,18-18
				c9.9,0,18,8.1,18,18S364.3,95.3,354.4,95.3z"/>
			<path class="st12" d="M102.7,92.9l8.8,8.8c-3.3,4.2-7.4,7.7-12.2,10.3c-5.6,3-12,4.8-18.8,4.8c-21.8,0-39.4-17.7-39.4-39.4
				s17.7-39.4,39.4-39.4c6.8,0,13.2,1.7,18.8,4.8c4.9,2.7,9.2,6.4,12.6,10.8l-9,8.9l-6.5,6.5c-3-5.7-9-9.6-15.9-9.6
				c-9.9,0-18,8.1-18,18s8.1,18,18,18c6.6,0,12.4-3.6,15.5-8.9L102.7,92.9z"/>
			<rect x="287.5" y="39.6" class="st12" width="21.3" height="74.2"/>
			<path class="st13" d="M193.4,80.9c-0.3,3.3-1,6.5-2.1,9.6l0,0c-4,11.2-12.9,20.1-24.2,24.1l0,0c-4.1,1.4-8.4,2.2-13,2.2
				c-16.7,0-31-10.4-36.8-25.2c-1.3-3.4-2.2-6.9-2.5-10.7c1.4,1.4,2.9,2.8,4.4,4.1c9.5,7.8,21.6,12.5,34.8,12.5
				C169.5,97.5,183.4,91.1,193.4,80.9z"/>
			<path class="st13" d="M193.4,73.7c-9.9-10.3-23.9-16.6-39.3-16.6c-13.2,0-25.4,4.7-34.8,12.5c-1.5,1.3-3,2.6-4.4,4.1
				c0.3-3.7,1.2-7.3,2.5-10.7c5.7-14.7,20-25.2,36.8-25.2c4,0,7.8,0.6,11.5,1.7c12.5,3.8,22.3,13.6,26.2,26l0,0
				C192.6,68.2,193.1,70.9,193.4,73.7z"/>
			<path class="st14" d="M193.4,73.7c-9.9-10.3-23.9-16.6-39.3-16.6c-13.2,0-25.4,4.7-34.8,12.5c-1.5,1.3-3,2.6-4.4,4.1
				c-1.1,1.2-2.2,2.3-3.2,3.6c1,1.3,2.1,2.4,3.2,3.6c1.4,1.4,2.9,2.8,4.4,4.1c9.5,7.8,21.6,12.5,34.8,12.5
				c15.4,0,29.3-6.4,39.3-16.6c1.1-1.1,2.2-2.3,3.2-3.6C195.6,76.1,194.5,74.9,193.4,73.7z M154.1,93.5c-9,0-16.2-7.3-16.2-16.2
				s7.3-16.2,16.2-16.2c9,0,16.2,7.3,16.2,16.2S163.1,93.5,154.1,93.5z"/>
		</g>
	</g>
</g>
<g id="guides" class="st0">
</g>
</svg>
